<?xml version="1.0" encoding="utf-8"?>
<!-- Generator: Adobe Illustrator 14.0.0, SVG Export Plug-In . SVG Version: 6.00 Build 43363)  -->
<!DOCTYPE svg PUBLIC "-//W3C//DTD SVG 1.1//EN" "http://www.w3.org/Graphics/SVG/1.1/DTD/svg11.dtd">
<svg version="1.1" id="Layer_1" xmlns="http://www.w3.org/2000/svg" xmlns:xlink="http://www.w3.org/1999/xlink" x="0px" y="0px"
	 width="210.309px" height="61px" viewBox="0 0 210.309 61" enable-background="new 0 0 210.309 61" xml:space="preserve">
<g>
	<path fill="#F1F2F2" d="M150.516,27.291c-0.146,0.614-0.364,1.147-0.656,1.6c-0.291,0.453-0.671,0.806-1.139,1.062
		c-0.468,0.255-1.02,0.382-1.655,0.382c-1.155,0-2.065-0.418-2.731-1.256c-0.666-0.837-0.999-2.083-0.999-3.738
		c0-0.687,0.07-1.332,0.211-1.935s0.361-1.132,0.663-1.584s0.687-0.809,1.155-1.069c0.468-0.26,1.035-0.39,1.701-0.39
		c1.208,0,2.12,0.414,2.739,1.241c0.619,0.827,0.929,2.063,0.929,3.707C150.734,26.017,150.661,26.677,150.516,27.291z
		 M154.191,21.695c-0.338-1.015-0.83-1.865-1.475-2.552c-0.646-0.687-1.431-1.205-2.357-1.553s-1.982-0.522-3.168-0.522
		c-1.217,0-2.31,0.2-3.278,0.601c-0.968,0.401-1.787,0.965-2.458,1.693c-0.671,0.729-1.186,1.608-1.545,2.638
		c-0.359,1.03-0.539,2.175-0.539,3.434c0,1.363,0.172,2.558,0.515,3.583s0.837,1.878,1.482,2.56
		c0.646,0.682,1.431,1.194,2.357,1.538c0.926,0.343,1.977,0.515,3.153,0.515c1.238,0,2.341-0.203,3.309-0.609
		s1.784-0.978,2.451-1.717c0.666-0.738,1.175-1.625,1.529-2.661c0.354-1.035,0.531-2.177,0.531-3.426
		C154.699,23.883,154.529,22.71,154.191,21.695z M136.109,33.269V22.624c0-0.843-0.102-1.605-0.304-2.287
		c-0.203-0.681-0.507-1.264-0.913-1.748s-0.911-0.858-1.514-1.124c-0.604-0.265-1.311-0.397-2.123-0.397
		c-0.583,0-1.108,0.062-1.577,0.187c-0.468,0.125-0.905,0.304-1.311,0.539c-0.406,0.234-0.783,0.518-1.132,0.851
		s-0.684,0.702-1.006,1.108l-0.094-2.341h-3.293v15.858h3.809V23.233c0.656-0.895,1.277-1.603,1.865-2.123
		c0.587-0.521,1.204-0.781,1.849-0.781c1.291,0,1.936,0.869,1.936,2.606v10.333H136.109z M110.386,30.303h-5.026v2.966h13.501
		v-2.966h-4.573V17.411h-8.382v2.966h4.48V30.303z M114.413,12.104c-0.125-0.302-0.299-0.567-0.523-0.796s-0.487-0.408-0.788-0.539
		c-0.302-0.13-0.63-0.195-0.983-0.195c-0.354,0-0.684,0.065-0.991,0.195c-0.307,0.13-0.572,0.31-0.796,0.539
		c-0.224,0.229-0.398,0.494-0.523,0.796s-0.188,0.625-0.188,0.968s0.063,0.666,0.188,0.968s0.299,0.564,0.523,0.788
		c0.224,0.224,0.489,0.401,0.796,0.531c0.307,0.13,0.637,0.195,0.991,0.195c0.354,0,0.682-0.065,0.983-0.195
		c0.301-0.13,0.564-0.307,0.788-0.531c0.224-0.224,0.398-0.486,0.523-0.788c0.125-0.302,0.187-0.625,0.187-0.968
		S114.538,12.406,114.413,12.104z M102.628,33.269l-5.759-8.023l5.463-7.835h-4.277l-3.512,5.213l-3.559-5.213h-4.635l5.634,7.867
		l-5.947,7.992h4.604l3.637-5.338l3.622,5.338H102.628z M79.512,28.384c-0.687,0.718-1.316,1.27-1.889,1.654
		c-0.572,0.385-1.124,0.578-1.654,0.578c-0.718,0-1.285-0.169-1.701-0.507c-0.417-0.338-0.625-0.83-0.625-1.475
		c0-0.322,0.065-0.626,0.195-0.913c0.13-0.286,0.335-0.539,0.617-0.757c0.281-0.219,0.645-0.39,1.092-0.515
		c0.447-0.125,0.994-0.188,1.639-0.188h2.326V28.384z M83.321,33.269V22.437c0-0.895-0.13-1.678-0.39-2.349
		c-0.26-0.671-0.664-1.23-1.209-1.678c-0.546-0.447-1.241-0.783-2.084-1.007c-0.843-0.224-1.852-0.335-3.028-0.335
		c-1.072,0-2.104,0.099-3.098,0.296c-0.994,0.198-1.871,0.448-2.63,0.75v3.043c0.853-0.385,1.735-0.684,2.646-0.897
		c0.911-0.213,1.834-0.32,2.771-0.32c0.593,0,1.092,0.063,1.498,0.188c0.406,0.125,0.736,0.302,0.991,0.531
		c0.255,0.229,0.439,0.507,0.554,0.835c0.114,0.328,0.171,0.694,0.171,1.1v0.953h-2.076c-1.311,0-2.453,0.13-3.426,0.39
		c-0.973,0.26-1.785,0.62-2.435,1.077c-0.65,0.458-1.134,1.004-1.452,1.639c-0.317,0.634-0.476,1.327-0.476,2.076
		c0,0.729,0.106,1.395,0.32,1.998s0.528,1.119,0.944,1.545c0.416,0.427,0.931,0.76,1.545,0.999c0.613,0.239,1.327,0.359,2.138,0.359
		c0.614,0,1.178-0.06,1.693-0.18c0.515-0.12,0.991-0.289,1.428-0.507c0.437-0.219,0.838-0.476,1.202-0.772
		c0.364-0.297,0.712-0.622,1.045-0.976l0.094,2.076H83.321z"/>
	<path fill="#0CBFD9" d="M49.192,29.247H49.09c0,2.039-0.827,3.884-2.163,5.221c-1.336,1.336-3.182,2.163-5.221,2.163
		s-3.884-0.826-5.221-2.163c-1.336-1.336-2.163-3.182-2.163-5.221c0-2.039,0.827-3.884,2.163-5.221
		c1.337-1.336,3.182-2.163,5.221-2.163s3.884,0.826,5.221,2.163c1.336,1.336,2.163,3.181,2.163,5.221H49.192h0.103
		c0-4.191-3.397-7.588-7.588-7.588s-7.589,3.397-7.589,7.588c0,4.19,3.398,7.588,7.589,7.588s7.588-3.398,7.588-7.588H49.192z"/>
	<circle fill="#0CBFD9" cx="30.74" cy="18.281" r="2.955"/>
	<path fill="#0CBFD9" d="M33.695,18.281h-0.103c0,0.788-0.319,1.5-0.835,2.017c-0.517,0.516-1.229,0.835-2.017,0.835
		s-1.5-0.319-2.017-0.835c-0.516-0.516-0.835-1.229-0.835-2.017s0.319-1.5,0.835-2.017c0.517-0.517,1.229-0.835,2.017-0.835
		s1.5,0.319,2.017,0.835c0.517,0.516,0.835,1.229,0.835,2.017H33.695h0.103c0-1.688-1.369-3.057-3.058-3.057
		c-1.689,0-3.057,1.369-3.057,3.057c0,1.689,1.368,3.058,3.057,3.058c1.688,0,3.058-1.369,3.058-3.058H33.695z"/>
	<circle fill="#0CBFD9" cx="52.475" cy="16.087" r="2.588"/>
	<path fill="#0CBFD9" d="M55.063,16.087H54.96c0,0.687-0.278,1.307-0.728,1.757s-1.071,0.729-1.757,0.729
		c-0.687,0-1.308-0.278-1.758-0.729s-0.728-1.071-0.728-1.757c0-0.687,0.278-1.308,0.728-1.758s1.071-0.728,1.758-0.728
		c0.687,0,1.307,0.278,1.757,0.728s0.728,1.071,0.728,1.758H55.063h0.103c0-1.486-1.205-2.691-2.69-2.691
		c-1.486,0-2.691,1.205-2.691,2.691c0,1.486,1.205,2.691,2.691,2.691c1.486,0,2.69-1.205,2.69-2.691H55.063z"/>
	<circle fill="#0CBFD9" cx="56.415" cy="29.247" r="3.94"/>
	<path fill="#0CBFD9" d="M60.355,29.247h-0.103c0,1.06-0.43,2.019-1.124,2.713c-0.695,0.694-1.653,1.124-2.713,1.124
		s-2.019-0.43-2.713-1.124c-0.695-0.695-1.124-1.653-1.124-2.713s0.429-2.019,1.124-2.713c0.694-0.695,1.653-1.124,2.713-1.124
		s2.019,0.429,2.713,1.124c0.694,0.694,1.124,1.653,1.124,2.713H60.355h0.103c0-2.233-1.81-4.042-4.042-4.042
		s-4.042,1.81-4.042,4.042s1.81,4.042,4.042,4.042s4.042-1.81,4.042-4.042H60.355z"/>
	<circle fill="#0CBFD9" cx="27.654" cy="38.571" r="4.202"/>
	<path fill="#0CBFD9" d="M31.856,38.571h-0.103c0,1.132-0.459,2.157-1.201,2.899s-1.767,1.201-2.899,1.201s-2.157-0.458-2.899-1.201
		s-1.201-1.767-1.201-2.899s0.458-2.157,1.201-2.899s1.767-1.201,2.899-1.201s2.157,0.459,2.899,1.201s1.201,1.767,1.201,2.899
		H31.856h0.103c0-2.377-1.928-4.305-4.305-4.305s-4.305,1.928-4.305,4.305s1.927,4.305,4.305,4.305s4.305-1.927,4.305-4.305H31.856z
		"/>
	<circle fill="#0CBFD9" cx="48.732" cy="43.299" r="4.202"/>
	<path fill="#0CBFD9" d="M52.935,43.299h-0.103c0,1.132-0.459,2.156-1.201,2.899c-0.742,0.742-1.767,1.201-2.899,1.201
		s-2.156-0.458-2.899-1.201c-0.742-0.743-1.201-1.767-1.201-2.899c0-1.133,0.458-2.157,1.201-2.899
		c0.743-0.742,1.767-1.201,2.899-1.201s2.157,0.459,2.899,1.201s1.201,1.767,1.201,2.899H52.935h0.103
		c0-2.378-1.928-4.306-4.305-4.306s-4.305,1.928-4.305,4.306c0,2.377,1.927,4.305,4.305,4.305s4.305-1.927,4.305-4.305H52.935z"/>
	<line fill="#0CBFD9" x1="30.74" y1="18.281" x2="41.707" y2="29.247"/>
	<polyline fill="#0CBFD9" points="30.015,19.006 40.982,29.972 42.432,28.522 31.465,17.556 	"/>
	<line fill="#0CBFD9" x1="27.654" y1="38.571" x2="41.707" y2="29.247"/>
	<polyline fill="#0CBFD9" points="28.221,39.426 42.274,30.101 41.14,28.393 27.087,37.717 	"/>
	<line fill="#0CBFD9" x1="56.415" y1="29.313" x2="41.607" y2="29.313"/>
	<polyline fill="#0CBFD9" points="56.415,28.287 41.607,28.287 41.607,30.338 56.415,30.338 	"/>
	<line fill="#0CBFD9" x1="52.475" y1="16.087" x2="41.607" y2="29.313"/>
	<polyline fill="#0CBFD9" points="51.683,15.436 40.815,28.662 42.4,29.963 53.268,16.738 	"/>
	<line fill="#0CBFD9" x1="48.732" y1="43.299" x2="41.607" y2="29.313"/>
	<polyline fill="#0CBFD9" points="49.646,42.833 42.521,28.847 40.694,29.778 47.818,43.764 	"/>
	<circle fill="#0CBFD9" cx="41.706" cy="29.247" r="7.486"/>
</g>
<g>
	<path fill="#F1F2F2" d="M185.505,46.502c0.014-0.469-0.024-0.883-0.113-1.241s-0.226-0.655-0.41-0.892s-0.413-0.416-0.684-0.537
		s-0.582-0.181-0.933-0.181c-0.255,0-0.49,0.027-0.704,0.082s-0.409,0.133-0.584,0.236s-0.335,0.225-0.479,0.366
		s-0.272,0.301-0.386,0.479l-0.062-1.012h-1.511v6.945h1.709v-4.396c0.314-0.465,0.603-0.799,0.865-1.001s0.516-0.304,0.762-0.304
		c0.141,0,0.267,0.027,0.376,0.082s0.202,0.141,0.277,0.26s0.13,0.269,0.164,0.451s0.047,0.403,0.038,0.663H185.505z
		 M173.132,46.502c0.05-0.51,0.209-0.906,0.479-1.186s0.613-0.42,1.032-0.42c0.191,0,0.37,0.032,0.537,0.096
		s0.312,0.162,0.438,0.294s0.225,0.3,0.297,0.502s0.107,0.441,0.103,0.714H173.132z M177.514,45.497
		c-0.132-0.378-0.326-0.704-0.581-0.978s-0.572-0.486-0.95-0.639s-0.813-0.229-1.306-0.229c-0.497,0-0.947,0.09-1.35,0.27
		s-0.746,0.435-1.029,0.766s-0.501,0.727-0.656,1.189s-0.232,0.977-0.232,1.542c0,0.57,0.078,1.071,0.232,1.504
		s0.378,0.796,0.67,1.09s0.647,0.516,1.066,0.667s0.893,0.226,1.422,0.226c0.209,0,0.426-0.008,0.649-0.024s0.444-0.04,0.663-0.072
		s0.433-0.068,0.643-0.109s0.403-0.086,0.581-0.137v-1.326c-0.415,0.119-0.814,0.204-1.2,0.256s-0.746,0.079-1.083,0.079
		c-0.292,0-0.557-0.041-0.796-0.123s-0.444-0.202-0.615-0.359s-0.303-0.352-0.396-0.584s-0.14-0.501-0.14-0.807h4.566
		c0.014-0.16,0.024-0.331,0.031-0.513s0.01-0.331,0.01-0.444C177.712,46.29,177.646,45.875,177.514,45.497z M169.694,50.747v-1.47
		h-3.377l3.322-4.3v-1.176h-5.517v1.429h3.315l-3.397,4.354v1.162H169.694z M158.51,49.448h-2.201v1.299h5.913v-1.299h-2.003v-5.646
		h-3.671v1.299h1.962V49.448z M160.274,41.478c-0.055-0.132-0.131-0.249-0.229-0.349s-0.213-0.179-0.345-0.236
		s-0.276-0.085-0.431-0.085s-0.3,0.028-0.434,0.085s-0.25,0.136-0.349,0.236s-0.174,0.216-0.229,0.349s-0.082,0.273-0.082,0.424
		s0.027,0.292,0.082,0.424s0.131,0.247,0.229,0.345s0.214,0.175,0.349,0.232s0.279,0.085,0.434,0.085s0.298-0.028,0.431-0.085
		s0.247-0.134,0.345-0.232s0.174-0.213,0.229-0.345s0.082-0.273,0.082-0.424S160.329,41.61,160.274,41.478z M150.813,49.448h-2.201
		v1.299h5.913v-1.299h-2.003v-8.36h-3.671v1.299h1.962V49.448z M144.989,48.607c-0.301,0.314-0.577,0.556-0.827,0.725
		s-0.492,0.253-0.725,0.253c-0.314,0-0.563-0.074-0.745-0.222s-0.273-0.363-0.273-0.646c0-0.141,0.028-0.274,0.085-0.4
		s0.147-0.236,0.27-0.332s0.283-0.171,0.479-0.226s0.435-0.082,0.718-0.082h1.019V48.607z M146.657,50.747v-4.744
		c0-0.392-0.057-0.735-0.171-1.029s-0.291-0.539-0.53-0.735s-0.543-0.343-0.913-0.441s-0.811-0.147-1.326-0.147
		c-0.469,0-0.922,0.043-1.357,0.13s-0.819,0.196-1.152,0.328v1.333c0.374-0.168,0.76-0.3,1.159-0.393s0.803-0.14,1.213-0.14
		c0.26,0,0.479,0.027,0.656,0.082s0.322,0.132,0.434,0.232s0.192,0.222,0.243,0.366s0.075,0.304,0.075,0.482v0.417h-0.909
		c-0.574,0-1.074,0.057-1.5,0.171s-0.782,0.271-1.066,0.472s-0.497,0.44-0.636,0.718s-0.208,0.581-0.208,0.909
		c0,0.319,0.047,0.611,0.14,0.875s0.231,0.49,0.414,0.677s0.408,0.333,0.677,0.438s0.581,0.157,0.937,0.157
		c0.269,0,0.516-0.026,0.742-0.079s0.434-0.126,0.625-0.222s0.367-0.208,0.526-0.338s0.312-0.272,0.458-0.427l0.041,0.909H146.657z
		 M133.163,43.802v4.662c0,0.369,0.044,0.703,0.133,1.001s0.222,0.555,0.4,0.769s0.4,0.379,0.667,0.496s0.578,0.174,0.933,0.174
		c0.25,0,0.479-0.028,0.687-0.085s0.399-0.137,0.574-0.239s0.338-0.227,0.489-0.373s0.298-0.308,0.444-0.485l0.041,1.025h1.442
		v-6.945h-1.668v4.396c-0.287,0.392-0.56,0.703-0.817,0.933s-0.525,0.345-0.803,0.345c-0.287,0-0.501-0.097-0.643-0.291
		s-0.212-0.479-0.212-0.858v-4.525H133.163z M131.098,47.985c-0.073-0.209-0.192-0.396-0.359-0.561s-0.386-0.311-0.66-0.441
		s-0.611-0.252-1.012-0.366c-0.355-0.1-0.642-0.192-0.858-0.277s-0.385-0.165-0.506-0.243s-0.202-0.157-0.243-0.239
		s-0.062-0.175-0.062-0.28c0-0.219,0.104-0.39,0.311-0.513s0.482-0.185,0.824-0.185s0.687,0.026,1.036,0.079s0.721,0.143,1.118,0.27
		v-1.36c-0.26-0.055-0.558-0.105-0.896-0.15s-0.725-0.068-1.162-0.068c-0.506,0-0.948,0.055-1.326,0.164s-0.694,0.259-0.947,0.448
		s-0.443,0.409-0.571,0.66s-0.191,0.517-0.191,0.8c0,0.292,0.042,0.546,0.126,0.762s0.211,0.407,0.379,0.571
		s0.382,0.307,0.639,0.427s0.557,0.229,0.899,0.325c0.369,0.105,0.667,0.199,0.896,0.284s0.404,0.167,0.53,0.246
		s0.211,0.163,0.256,0.25s0.068,0.182,0.068,0.287c0,0.223-0.108,0.404-0.325,0.543s-0.543,0.208-0.981,0.208
		c-0.378,0-0.78-0.04-1.207-0.12s-0.854-0.208-1.282-0.386v1.504c0.365,0.091,0.752,0.161,1.162,0.208s0.871,0.072,1.381,0.072
		c0.383,0,0.758-0.04,1.125-0.12s0.695-0.208,0.984-0.383s0.522-0.403,0.697-0.684s0.263-0.619,0.263-1.015
		C131.208,48.434,131.171,48.195,131.098,47.985z M120.024,49.448h-2.201v1.299h5.913v-1.299h-2.003v-5.646h-3.671v1.299h1.962
		V49.448z M121.788,41.478c-0.055-0.132-0.131-0.249-0.229-0.349s-0.213-0.179-0.345-0.236s-0.276-0.085-0.431-0.085
		s-0.3,0.028-0.434,0.085s-0.25,0.136-0.349,0.236s-0.174,0.216-0.229,0.349s-0.082,0.273-0.082,0.424s0.027,0.292,0.082,0.424
		s0.131,0.247,0.229,0.345s0.214,0.175,0.349,0.232s0.279,0.085,0.434,0.085s0.298-0.028,0.431-0.085s0.247-0.134,0.345-0.232
		s0.174-0.213,0.229-0.345s0.082-0.273,0.082-0.424S121.842,41.61,121.788,41.478z M116.695,43.802h-1.791l-1.456,3.992
		l-0.424,1.217l-0.431-1.271l-1.442-3.938h-1.859l2.755,6.945h1.921L116.695,43.802z M98.805,48.607
		c-0.301,0.314-0.577,0.556-0.827,0.725s-0.492,0.253-0.725,0.253c-0.314,0-0.563-0.074-0.745-0.222S96.235,49,96.235,48.717
		c0-0.141,0.028-0.274,0.085-0.4s0.147-0.236,0.27-0.332s0.283-0.171,0.479-0.226s0.435-0.082,0.718-0.082h1.019V48.607z
		 M100.473,50.747v-4.744c0-0.392-0.057-0.735-0.171-1.029s-0.291-0.539-0.53-0.735s-0.543-0.343-0.913-0.441
		s-0.811-0.147-1.326-0.147c-0.469,0-0.922,0.043-1.357,0.13s-0.819,0.196-1.152,0.328v1.333c0.374-0.168,0.76-0.3,1.159-0.393
		s0.803-0.14,1.213-0.14c0.26,0,0.479,0.027,0.656,0.082s0.322,0.132,0.434,0.232s0.192,0.222,0.243,0.366s0.075,0.304,0.075,0.482
		v0.417h-0.909c-0.574,0-1.074,0.057-1.5,0.171s-0.782,0.271-1.066,0.472s-0.497,0.44-0.636,0.718s-0.208,0.581-0.208,0.909
		c0,0.319,0.047,0.611,0.14,0.875s0.231,0.49,0.414,0.677s0.408,0.333,0.677,0.438s0.581,0.157,0.937,0.157
		c0.269,0,0.516-0.026,0.742-0.079s0.434-0.126,0.625-0.222s0.367-0.208,0.526-0.338s0.312-0.272,0.458-0.427l0.041,0.909H100.473z
		 M92.721,49.346c-0.214,0.059-0.451,0.112-0.711,0.157s-0.526,0.068-0.8,0.068c-0.428,0-0.734-0.102-0.916-0.304
		s-0.273-0.502-0.273-0.899v-3.268h2.7v-1.299h-2.7V41.58l-1.709,0.444v1.777h-1.866v1.299h1.866v3.391
		c0,0.419,0.051,0.78,0.154,1.083s0.262,0.553,0.479,0.749s0.49,0.342,0.82,0.438s0.724,0.144,1.179,0.144
		c0.273,0,0.563-0.021,0.868-0.062s0.608-0.096,0.909-0.164V49.346z M83.411,48.607c-0.301,0.314-0.577,0.556-0.827,0.725
		s-0.492,0.253-0.725,0.253c-0.314,0-0.563-0.074-0.745-0.222S80.84,49,80.84,48.717c0-0.141,0.028-0.274,0.085-0.4
		s0.147-0.236,0.27-0.332s0.283-0.171,0.479-0.226s0.435-0.082,0.718-0.082h1.019V48.607z M85.079,50.747v-4.744
		c0-0.392-0.057-0.735-0.171-1.029s-0.291-0.539-0.53-0.735s-0.543-0.343-0.913-0.441s-0.811-0.147-1.326-0.147
		c-0.469,0-0.922,0.043-1.357,0.13s-0.819,0.196-1.152,0.328v1.333c0.374-0.168,0.76-0.3,1.159-0.393s0.803-0.14,1.213-0.14
		c0.26,0,0.479,0.027,0.656,0.082s0.322,0.132,0.434,0.232s0.192,0.222,0.243,0.366s0.075,0.304,0.075,0.482v0.417h-0.909
		c-0.574,0-1.074,0.057-1.5,0.171s-0.782,0.271-1.066,0.472s-0.497,0.44-0.636,0.718s-0.208,0.581-0.208,0.909
		c0,0.319,0.047,0.611,0.14,0.875s0.231,0.49,0.414,0.677s0.408,0.333,0.677,0.438s0.581,0.157,0.937,0.157
		c0.269,0,0.516-0.026,0.742-0.079s0.434-0.126,0.625-0.222s0.367-0.208,0.526-0.338s0.312-0.272,0.458-0.427l0.041,0.909H85.079z
		 M75.536,48.601c-0.428,0.492-1.055,0.738-1.88,0.738h-0.738v-6.118h0.854c0.46,0,0.845,0.068,1.155,0.205s0.557,0.336,0.742,0.598
		s0.315,0.582,0.393,0.96s0.116,0.809,0.116,1.292C76.178,47.333,75.964,48.108,75.536,48.601z M77.727,44.212
		c-0.171-0.547-0.427-0.998-0.769-1.354s-0.769-0.619-1.282-0.79s-1.111-0.256-1.794-0.256h-2.646v8.935h2.27
		c0.789,0,1.465-0.108,2.03-0.325s1.029-0.524,1.391-0.923s0.629-0.881,0.8-1.446s0.256-1.194,0.256-1.887
		C77.983,45.411,77.897,44.759,77.727,44.212z"/>
</g>
</svg>
